<svg version="1.1" xmlns="http://www.w3.org/2000/svg" fill-rule="evenodd" clip-rule="evenodd" height="1024" width="1024" viewBox="0 0 1024 1024"><path d="M683.918 668.673c-32.61 27.295-56.165 46.995-56.165 76.125l0.045 26.47-83.12 0L544.678 546.708l89.35-89.917c12.725-12.81 12.64-33.508-0.15-46.232-12.81-12.68-33.47-12.657-46.235 0.153l-75.645 76.125-86.387-86.952c-12.745-12.79-33.42-12.855-46.252-0.152-12.767 12.722-12.855 33.422-0.132 46.232l100.092 100.745 0 224.559-83.052 0 0-26.47c0-31.05-25.95-52.79-58.782-80.33-55.08-46.17-130.507-109.395-130.507-234.714 0-170.9 136.847-309.922 305.022-309.922 168.2 0 305.019 139.022 305.019 309.922C817.018 557.299 736.928 624.313 683.918 668.673M579.538 904.167 444.481 904.167c-25.885 0-47.04-20.915-48.302-47.125 0.065-0.805 0.087-1.61 0.087-2.44l0-17.975 231.622 0 0.04 17.975C627.928 881.928 606.228 904.167 579.538 904.167M511.999 54.47c-204.232 0-370.382 168.35-370.382 375.284 0 155.824 96.32 236.564 153.86 284.804 13.183 11.045 30.96 25.945 35.427 33.005l0 48.105c-0.698 2.66-1.198 5.405-1.198 8.28 0 2.88 0.5 5.62 1.198 8.28l0 39.24c-0.11 1.045-0.153 2.07-0.153 3.135 0 63.355 51.025 114.93 113.73 114.93l135.057 0c62.725 0 113.75-51.575 113.75-114.93l-0.06-42.635c0.65-2.57 1.11-5.23 1.11-8.02 0-2.81-0.48-5.49-1.16-8.105l-0.06-47.125c4.855-6.58 20.215-19.435 32.765-29.915 58.52-48.995 156.495-130.985 156.495-289.049C882.378 222.819 716.228 54.47 511.999 54.47z"></path></svg>